<?xml version="1.0" encoding="UTF-8" standalone="no"?>
<svg
   width="18.500002"
   height="20.75009"
   viewBox="0 0 18.500002 20.75009"
   fill="none"
   version="1.1"
   id="svg1"
   sodipodi:docname="alarm-sleep.svg"
   inkscape:version="1.4 (e7c3feb1, 2024-10-09)"
   xmlns:inkscape="http://www.inkscape.org/namespaces/inkscape"
   xmlns:sodipodi="http://sodipodi.sourceforge.net/DTD/sodipodi-0.dtd"
   xmlns="http://www.w3.org/2000/svg"
   xmlns:svg="http://www.w3.org/2000/svg">
  <defs
     id="defs1" />
  <sodipodi:namedview
     id="namedview1"
     pagecolor="#ffffff"
     bordercolor="#000000"
     borderopacity="0.25"
     inkscape:showpageshadow="2"
     inkscape:pageopacity="0.0"
     inkscape:pagecheckerboard="0"
     inkscape:deskcolor="#d1d1d1"
     inkscape:zoom="22.799119"
     inkscape:cx="5.1537079"
     inkscape:cy="13.728601"
     inkscape:window-width="1200"
     inkscape:window-height="1027"
     inkscape:window-x="332"
     inkscape:window-y="44"
     inkscape:window-maximized="0"
     inkscape:current-layer="svg1" />
  <path
     fill-rule="evenodd"
     clip-rule="evenodd"
     d="m 5.3855007,0.3530896 c 0.10531,0.16857 0.1394,0.37206 0.09477,0.56575 -0.04462,0.19369 -0.16431,0.36174 -0.33277,0.46724 l -4,2.50001 c -0.16867998,0.10542 -0.37231998,0.13952 -0.56613998,0.09479 -0.19382,-0.04473 -0.36193,-0.16462 -0.46736,-0.33329 -0.10542,-0.16868 -0.13952,-0.37233 -0.09479,-0.56615 0.04472,-0.19382 0.16461,-0.36193 0.33329,-0.46735 l 3.99999998,-2.50001 c 0.1687,-0.10522 0.37227,-0.13915 0.56598,-0.09433 0.1937,0.04482 0.36168,0.16471 0.46702,0.33334 z m 7.7280103,0 c 0.0522,-0.08363 0.1203,-0.15616 0.2005,-0.21344 0.0802,-0.05728 0.1709,-0.09819 0.267,-0.12039 0.096,-0.02219 0.1954,-0.02524 0.2927,-0.00897 0.0972,0.01627 0.1902,0.05154 0.2738,0.10379 l 4,2.50001 c 0.1687,0.10542 0.2886,0.27353 0.3333,0.46735 0.0447,0.19382 0.0106,0.39747 -0.0948,0.56615 -0.0522,0.08352 -0.1203,0.15594 -0.2005,0.21312 -0.0802,0.05719 -0.1709,0.09802 -0.2669,0.12017 -0.1938,0.04473 -0.3974,0.01063 -0.5661,-0.09479 l -4,-2.50001 c -0.1686,-0.10533 -0.2885,-0.27332 -0.3333,-0.46702 -0.0449,-0.19371 -0.0109,-0.39728 0.0943,-0.56597 z M 9.2495107,20.75009 c 1.1819003,0 2.3522003,-0.2328 3.4441003,-0.6851 1.092,-0.4523 2.0841,-1.1152 2.9199,-1.9509 0.8357,-0.8358 1.4986,-1.8279 1.9509,-2.9199 0.4523,-1.0919 0.6851,-2.2622 0.6851,-3.4441 0,-1.1819 -0.2328,-2.3522004 -0.6851,-3.4441604 -0.4523,-1.09193 -1.1152,-2.08408 -1.9509,-2.91981 -0.8358,-0.83572 -1.8279,-1.49866 -2.9199,-1.95095 -1.0919,-0.45229 -2.2622,-0.68509 -3.4441003,-0.68509 -2.38696,0 -4.67614,0.94822 -6.36397,2.63604 -1.68783,1.68783 -2.63603998,3.97697 -2.63603998,6.3639704 0,2.3869 0.94820998,4.6761 2.63603998,6.364 1.68783,1.6878 3.97701,2.636 6.36397,2.636 z M 6.2495007,9.5000896 c -0.19891,0 -0.38968,-0.079 -0.53033,-0.2197 -0.14065,-0.1406 -0.21967,-0.3314 -0.21967,-0.5303 0,-0.19892 0.07902,-0.38968 0.21967,-0.53033 0.14065,-0.14066 0.33142,-0.21967 0.53033,-0.21967 h 6.0000103 c 0.1482,1.3e-4 0.2931,0.04418 0.4163,0.1266 0.1232,0.08242 0.2193,0.19951 0.276,0.33647 0.0567,0.13696 0.0715,0.28763 0.0427,0.43303 -0.0289,0.1454 -0.1003,0.279 -0.205,0.3839 L 8.0595107,14.00009 h 4.1900003 c 0.1989,0 0.3897,0.079 0.5303,0.2197 0.1407,0.1406 0.2197,0.3314 0.2197,0.5303 0,0.1989 -0.079,0.3897 -0.2197,0.5303 -0.1406,0.1407 -0.3314,0.2197 -0.5303,0.2197 H 6.2495007 c -0.14824,-10e-5 -0.29311,-0.0442 -0.41633,-0.1266 -0.12322,-0.0824 -0.21924,-0.1995 -0.27596,-0.3365 -0.05671,-0.1369 -0.07156,-0.2876 -0.04267,-0.433 0.02888,-0.1454 0.10021,-0.279 0.20496,-0.3839 L 10.439511,9.5000896 Z"
     fill="#403572"
     id="path1" />
</svg>
