<svg width="24" height="24" viewBox="0 0 24 24" fill="none" xmlns="http://www.w3.org/2000/svg">
<path d="M12 10.6534C13.7526 10.6534 15.1733 9.25054 15.1733 7.52005C15.1733 5.78956 13.7526 4.38672 12 4.38672C10.2474 4.38672 8.82666 5.78956 8.82666 7.52005C8.82666 9.25054 10.2474 10.6534 12 10.6534Z" fill="#479696"/>
<path d="M7.1866 7.8333H7.5066V7.54664C7.50854 6.71304 7.74372 5.89661 8.18553 5.18972C8.62734 4.48282 9.25815 3.91367 10.0066 3.54664C9.78502 3.03635 9.42937 2.59559 8.97742 2.2712C8.52547 1.9468 7.9941 1.75087 7.43973 1.70421C6.88537 1.65756 6.32872 1.76192 5.82891 2.00622C5.3291 2.25052 4.90478 2.62563 4.60104 3.09171C4.29729 3.55779 4.12545 4.09744 4.10377 4.65334C4.08209 5.20924 4.21138 5.76063 4.47791 6.24895C4.74444 6.73727 5.13825 7.14429 5.61752 7.42677C6.09679 7.70925 6.64362 7.85665 7.19993 7.8533L7.1866 7.8333ZM16.5066 7.51997V7.80664H16.8266C17.3755 7.80113 17.9128 7.64775 18.3818 7.36263C18.8509 7.07752 19.2345 6.67122 19.4921 6.18651C19.7497 5.70179 19.8719 5.15658 19.8458 4.60827C19.8197 4.05996 19.6463 3.52883 19.3438 3.07078C19.0413 2.61273 18.6209 2.2447 18.1268 2.00544C17.6328 1.76617 17.0834 1.66452 16.5364 1.71117C15.9895 1.75783 15.4652 1.95107 15.0189 2.27056C14.5725 2.59005 14.2205 3.02397 13.9999 3.52664C14.7486 3.89223 15.3801 4.45995 15.8231 5.16562C16.266 5.8713 16.5028 6.6868 16.5066 7.51997ZM14.8599 10.9666C16.1853 11.2294 17.4669 11.6783 18.6666 12.3C18.8357 12.3927 18.9887 12.512 19.1199 12.6533H22.6666V10.3733C22.6672 10.2859 22.644 10.1999 22.5993 10.1247C22.5547 10.0495 22.4904 9.98793 22.4133 9.94664C20.6854 9.04285 18.7632 8.57376 16.8133 8.57997H16.3733C16.1422 9.51912 15.6109 10.3571 14.8599 10.9666ZM4.35327 13.9466C4.35205 13.6109 4.44272 13.2812 4.61547 12.9933C4.78821 12.7054 5.03644 12.4702 5.33327 12.3133C6.53296 11.6917 7.81454 11.2428 9.13993 10.98C8.39264 10.3757 7.86161 9.54519 7.6266 8.61331H7.1866C5.23662 8.6071 3.3145 9.07618 1.5866 9.97997C1.50951 10.0213 1.44517 10.0828 1.40052 10.158C1.35587 10.2332 1.33262 10.3192 1.33327 10.4066V14.6666H4.35327V13.9466ZM14.3066 17.7933H18.2799V18.7266H14.3066V17.7933Z" fill="#479696"/>
<path d="M21.8734 14.1733H17.2934V13.5066C17.2934 13.3298 17.2232 13.1603 17.0982 13.0352C16.9732 12.9102 16.8036 12.84 16.6268 12.84C16.45 12.84 16.2804 12.9102 16.1554 13.0352C16.0304 13.1603 15.9601 13.3298 15.9601 13.5066V14.1733H14.6668V12.2866C13.7898 12.1017 12.8964 12.0057 12.0001 12C9.89605 11.992 7.82215 12.5002 5.96011 13.48C5.87719 13.523 5.80777 13.5881 5.75954 13.6681C5.7113 13.7481 5.68612 13.8399 5.68678 13.9333V17.6733H10.4268V21.7333C10.4268 21.9101 10.497 22.0797 10.622 22.2047C10.7471 22.3297 10.9166 22.4 11.0934 22.4H21.8734C22.0503 22.4 22.2198 22.3297 22.3448 22.2047C22.4699 22.0797 22.5401 21.9101 22.5401 21.7333V14.84C22.5401 14.6632 22.4699 14.4936 22.3448 14.3686C22.2198 14.2435 22.0503 14.1733 21.8734 14.1733ZM21.2068 21.08H11.7601V15.5066H15.9601V16.1133C15.9601 16.2901 16.0304 16.4597 16.1554 16.5847C16.2804 16.7097 16.45 16.78 16.6268 16.78C16.8036 16.78 16.9732 16.7097 17.0982 16.5847C17.2232 16.4597 17.2934 16.2901 17.2934 16.1133V15.5066H21.2068V21.08Z" fill="#479696"/>
</svg>
