<?xml version="1.0" encoding="UTF-8" standalone="no"?>
<svg
   width="20"
   height="22"
   viewBox="0 0 20 22"
   fill="none"
   version="1.1"
   id="svg3"
   xmlns="http://www.w3.org/2000/svg"
   xmlns:svg="http://www.w3.org/2000/svg">
  <defs
     id="defs3" />
  <path
     id="path1"
     style="fill:#000000;stroke-linecap:round;stroke-linejoin:round"
     d="M 4,0 C 3.4699433,0 2.9607276,0.21116734 2.5859375,0.5859375 2.2111673,0.96072764 2,1.4699433 2,2 V 5.5 H 1 a 1.0001,1.0001 0 0 0 -1,1 v 9 a 1.0001,1.0001 0 0 0 1,1 H 2 V 20 c 0,0.530057 0.2110163,1.039201 0.5859375,1.414062 C 2.9606711,21.788716 3.4698427,22 4,22 h 14 c 0.530157,0 1.039258,-0.211133 1.414062,-0.585938 C 19.788867,21.039258 20,20.530157 20,20 V 2 C 20,1.4698427 19.788716,0.96067114 19.414062,0.5859375 19.039201,0.21101631 18.530057,0 18,0 Z M 4,2 H 18 V 20 H 4 v -3.5 h 6 a 1.0001,1.0001 0 0 0 1,-1 v -9 a 1.0001,1.0001 0 0 0 -1,-1 H 4 Z m 10.5,3.5 a 1,1 0 0 0 -1,1 1,1 0 0 0 1,1 H 16 a 1,1 0 0 0 1,-1 1,1 0 0 0 -1,-1 z M 2,7.5 h 1 6 v 7 H 3 2 Z m 2,1 a 1,1 0 0 0 -0.7070312,0.2929688 1,1 0 0 0 0,1.4140622 L 4.0859375,11 3.2929688,11.792969 a 1,1 0 0 0 0,1.414062 1,1 0 0 0 1.4140624,0 L 5.5,12.414062 6.2929688,13.207031 a 1,1 0 0 0 1.4140624,0 1,1 0 0 0 0,-1.414062 L 6.9140625,11 7.7070312,10.207031 a 1,1 0 0 0 0,-1.4140622 1,1 0 0 0 -1.4140624,0 L 5.5,9.5859375 4.7070312,8.7929688 A 1,1 0 0 0 4,8.5 Z m 9,1 a 1,1 0 0 0 -1,1 1,1 0 0 0 1,1 h 3 a 1,1 0 0 0 1,-1 1,1 0 0 0 -1,-1 z m 0,4 a 1,1 0 0 0 -1,1 1,1 0 0 0 1,1 h 3 a 1,1 0 0 0 1,-1 1,1 0 0 0 -1,-1 z" />
</svg>
