<?xml version="1.0" encoding="UTF-8" standalone="no"?>
<svg
   width="20"
   height="21.999973"
   viewBox="0 0 20 21.999973"
   fill="none"
   version="1.1"
   id="svg2"
   xmlns="http://www.w3.org/2000/svg"
   xmlns:svg="http://www.w3.org/2000/svg">
  <defs
     id="defs2" />
  <path
     id="path1"
     style="fill:#000000;stroke-linecap:round;stroke-linejoin:round"
     d="M 9.78125,0.02539063 A 1.0001,1.0001 0 0 0 9.3867188,0.2109375 l -9.00000005,7 A 1.0001,1.0001 0 0 0 0,8 v 11 c 0,0.795244 0.31658979,1.558747 0.87890625,2.121094 C 1.4412554,21.683488 2.2047534,22 3,22 h 4 6 4 c 0.795232,0 1.558739,-0.316551 2.121094,-0.878906 C 19.683449,20.558739 20,19.795232 20,19 V 8 A 1.0001,1.0001 0 0 0 19.613281,7.2109375 l -9,-7 A 1.0001,1.0001 0 0 0 9.78125,0.02539063 Z M 10,2.2675781 18,8.4882812 V 19 c 0,0.265568 -0.105124,0.519186 -0.292969,0.707031 C 17.519186,19.894876 17.265568,20 17,20 H 14 V 11 A 1.0001,1.0001 0 0 0 13,10 H 7 a 1.0001,1.0001 0 0 0 -1,1 v 9 H 3 C 2.7343866,20 2.4807596,19.894837 2.2929688,19.707031 2.1051251,19.519178 2,19.265556 2,19 V 8.4882812 Z M 8,12 h 4 v 8 H 8 Z" />
</svg>
