<?xml version="1.0" encoding="UTF-8" standalone="no"?>
<svg
   width="18"
   height="20"
   viewBox="0 0 18 20"
   fill="none"
   version="1.1"
   id="svg2"
   xmlns="http://www.w3.org/2000/svg"
   xmlns:svg="http://www.w3.org/2000/svg">
  <defs
     id="defs2" />
  <path
     id="path1"
     style="fill:#8b97a8;stroke-linecap:round;stroke-linejoin:round"
     d="M 9,0 C 6.2504204,0 4,2.2504204 4,5 4,7.7495796 6.2504204,10 9,10 11.749549,10 14,7.7495916 14,5 14,2.2504084 11.749549,0 9,0 Z m 0,2 c 1.668651,0 3,1.3313116 3,3 C 12,6.6686884 10.668651,8 9,8 7.3312996,8 6,6.6687004 6,5 6,3.3312996 7.3312996,2 9,2 Z M 5,12 C 3.6743159,12 2.4022669,12.527358 1.4648438,13.464844 0.52742141,14.402216 0,15.674275 0,17 v 2 a 1,1 0 0 0 1,1 1,1 0 0 0 1,-1 V 17 C 2,16.203925 2.3160486,15.441734 2.8789062,14.878906 3.4417832,14.315992 4.2039441,14 5,14 h 8 c 0.796093,0 1.558279,0.316016 2.121094,0.878906 C 15.683984,15.441721 16,16.203907 16,17 v 2 a 1,1 0 0 0 1,1 1,1 0 0 0 1,-1 V 17 C 18,15.674293 17.472666,14.402229 16.535156,13.464844 15.597771,12.527334 14.325707,12 13,12 Z" />
</svg>
