<?xml version="1.0" encoding="UTF-8" standalone="no"?>
<svg
   width="21.500021"
   height="21.500021"
   viewBox="0 0 21.500021 21.500021"
   fill="none"
   version="1.1"
   id="svg2"
   xmlns="http://www.w3.org/2000/svg"
   xmlns:svg="http://www.w3.org/2000/svg">
  <defs
     id="defs2" />
  <path
     id="path1"
     style="fill:#8b97a8;stroke-linecap:round;stroke-linejoin:round"
     d="M 10.75,0 C 8.3930001,0 6.6104964,-0.00496289 5.1640625,0.18945312 3.7176286,0.38386915 2.558739,0.80964253 1.6835938,1.6835938 0.8094367,2.5583479 0.38386768,3.7175068 0.18945312,5.1640625 -0.00496142,6.6106182 0,8.3930001 0,10.75 c 0,2.357 -0.00496303,4.13937 0.18945312,5.585938 0.19432922,1.44592 0.6204243,2.60474 1.49414068,3.478515 0.8747057,0.874706 2.033858,1.301539 3.4804687,1.496094 C 6.6106732,21.505102 8.3930001,21.5 10.75,21.5 c 2.357,0 4.139315,0.0051 5.585938,-0.189453 1.445551,-0.194412 2.604878,-0.620396 3.478515,-1.494141 l 0.002,-0.002 c 0.873539,-0.874027 1.299727,-2.033085 1.494141,-3.478515 C 21.505058,14.889484 21.5,13.107 21.5,10.75 21.5,8.3930001 21.505103,6.6105513 21.310547,5.1640625 21.115991,3.7175737 20.690906,2.5586906 19.816406,1.6835938 h -0.002 C 18.940197,0.80929098 17.782383,0.38387076 16.335938,0.18945312 14.889492,-0.0049645 13.107,0 10.75,0 Z m 0,1.5 c 2.357,0 4.110165,0.0042 5.386719,0.1757812 1.276554,0.1715824 2.02749,0.4786622 2.617187,1.0683594 0.5905,0.5909032 0.898619,1.3426295 1.070313,2.6191406 C 19.995913,6.6397924 20,8.3930001 20,10.75 c 0,2.357 -0.0041,4.11022 -0.175781,5.386719 -0.171692,1.276499 -0.480164,2.027441 -1.070313,2.617187 v 0.002 c -0.589137,0.589943 -1.34056,0.896666 -2.617187,1.06836 C 14.860091,19.995865 13.107,20 10.75,20 8.3930001,20 6.6399206,19.995914 5.3632812,19.824219 4.0866421,19.652523 3.3344349,19.344201 2.7441406,18.753906 2.1546498,18.164818 1.8473652,17.413401 1.6757812,16.136719 1.5041974,14.860037 1.5,13.107 1.5,10.75 1.5,8.3930001 1.5041959,6.6399755 1.6757812,5.3632812 1.8473667,4.086587 2.1542977,3.3343864 2.7441406,2.7441406 3.3349954,2.1540919 4.0867153,1.8473653 5.3632812,1.6757812 6.6398473,1.5041973 8.3930001,1.5 10.75,1.5 Z m 0,4.5 A 0.75,0.75 0 0 0 10,6.75 v 4 a 0.750075,0.750075 0 0 0 0.21875,0.53125 l 2.5,2.5 a 0.75,0.75 0 0 0 1.0625,0 0.75,0.75 0 0 0 0,-1.0625 L 11.5,10.439453 V 6.75 A 0.75,0.75 0 0 0 10.75,6 Z" />
</svg>
