<?xml version="1.0" encoding="UTF-8" standalone="no"?>
<svg
   width="24"
   height="24"
   viewBox="0 0 24 24"
   fill="none"
   version="1.1"
   id="svg2"
   xmlns="http://www.w3.org/2000/svg"
   xmlns:svg="http://www.w3.org/2000/svg">
  <path
     id="path1"
     style="fill:#8b97a8;stroke-linecap:round;stroke-linejoin:round"
     d="M 12,0 C 11.204756,0 10.441253,0.31658979 9.8789062,0.87890625 9.3165121,1.4412554 9,2.2047534 9,3 V 3.1699219 C 8.9987632,3.2954248 8.9619136,3.4167905 8.8925781,3.5214844 8.8282568,3.6186126 8.7333264,3.691435 8.6289062,3.7421875 A 1.0001,1.0001 0 0 0 8.515625,3.765625 C 8.3967242,3.8181019 8.2665852,3.83374 8.1386719,3.8105469 8.0108113,3.7873665 7.8917389,3.72565 7.7988281,3.6347656 L 7.7480469,3.5839844 C 7.4694508,3.3050884 7.1376335,3.082614 6.7734375,2.9316406 6.4092447,2.7806686 6.0192204,2.703125 5.625,2.703125 5.2307796,2.703125 4.8407553,2.780669 4.4765625,2.9316406 4.1132079,3.0822652 3.7820995,3.3040452 3.5039062,3.5820312 3.2250101,3.8606272 3.0025359,4.1924446 2.8515625,4.5566406 2.7005905,4.9208334 2.6230469,5.3108577 2.6230469,5.7050781 c 0,0.3942204 0.077544,0.7842447 0.2285156,1.1484375 0.1509734,0.3641961 0.3734476,0.6960134 0.6523437,0.9746094 l 0.050781,0.050781 c 0.090884,0.092911 0.1526008,0.2119833 0.1757813,0.3398438 0.023193,0.1279133 0.00755,0.2580523 -0.044922,0.3769531 a 1.0001,1.0001 0 0 0 -0.023437,0.058594 C 3.6170652,8.7767765 3.5358733,8.8830348 3.4296875,8.9589844 3.3234568,9.0349632 3.1967229,9.0770465 3.0664062,9.0800781 H 3 c -0.7952466,0 -1.5587446,0.3165121 -2.12109375,0.8789063 C 0.31658979,10.521331 0,11.284834 0,12.080078 0,12.875322 0.31658979,13.638825 0.87890625,14.201172 1.4412554,14.763566 2.2047534,15.080078 3,15.080078 h 0.1699219 c 0.1256421,0.0012 0.2469567,0.03814 0.3515625,0.107422 0.1058771,0.07013 0.190278,0.170534 0.2402344,0.287109 a 1.0001,1.0001 0 0 0 0.00391,0.0098 c 0.052452,0.118836 0.068113,0.24905 0.044922,0.376953 -0.023179,0.127859 -0.084826,0.246853 -0.1757813,0.339844 l -0.050781,0.05078 C 3.3049583,16.530567 3.0826028,16.862393 2.9316406,17.226562 2.78065,17.590801 2.703125,17.980795 2.703125,18.375 c 0,0.394205 0.077525,0.7842 0.2285156,1.148438 0.1506135,0.363327 0.3722795,0.694412 0.6503906,0.972656 h 0.00195 v 0.002 c 0.2782564,0.278123 0.6092202,0.499807 0.9726562,0.650391 0.3642823,0.151084 0.7542171,0.228515 1.1484375,0.228515 0.3942204,0 0.7841553,-0.07743 1.1484375,-0.228515 0.3642776,-0.150933 0.6959503,-0.37331 0.9746094,-0.652344 l 0.050781,-0.05078 c 0.092979,-0.09094 0.2101493,-0.152626 0.3378907,-0.175781 0.1279473,-0.02319 0.2599813,-0.0076 0.3789062,0.04492 a 1.0001,1.0001 0 0 0 0.058594,0.02344 c 0.1225753,0.04509 0.2287593,0.126263 0.3046875,0.232421 0.075986,0.106242 0.1180618,0.23295 0.1210937,0.363282 V 21 c 0,0.795232 0.3165515,1.558739 0.8789063,2.121094 C 10.521342,23.683449 11.284847,24 12.080078,24 12.87531,24 13.638817,23.683449 14.201172,23.121094 14.763527,22.558739 15.080078,21.795232 15.080078,21 v -0.166016 -0.0039 c 0.0012,-0.125658 0.03813,-0.246945 0.107422,-0.351562 0.07008,-0.105804 0.170308,-0.190166 0.287109,-0.240235 a 1.0001,1.0001 0 0 0 0.0098,-0.0039 c 0.11886,-0.05245 0.249016,-0.06811 0.376953,-0.04492 0.12774,0.02315 0.246785,0.08478 0.339844,0.175781 l 0.05078,0.05078 c 0.27871,0.27916 0.61036,0.501422 0.974609,0.652343 0.364329,0.151103 0.754233,0.228516 1.148438,0.228516 0.394205,0 0.78411,-0.07741 1.148438,-0.228516 0.363409,-0.150572 0.694349,-0.372142 0.972656,-0.65039 v -0.002 c 0.278614,-0.278469 0.501632,-0.60891 0.652344,-0.972657 0.151102,-0.364327 0.228515,-0.754232 0.228515,-1.148437 0,-0.394206 -0.07741,-0.784111 -0.228515,-1.148438 -0.150573,-0.363409 -0.372143,-0.694349 -0.650391,-0.972656 l -0.002,-0.002 -0.05078,-0.05078 c -0.09101,-0.09306 -0.152627,-0.210151 -0.175781,-0.337891 -0.02319,-0.127937 -0.0075,-0.260046 0.04492,-0.378906 a 1.0001,1.0001 0 0 0 0.0039,-0.0098 c 0.05009,-0.116686 0.134431,-0.217033 0.240235,-0.287109 C 20.663212,15.038132 20.784498,15.001245 20.910156,15 H 21 c 0.795232,0 1.558739,-0.316551 2.121094,-0.878906 C 23.683449,13.558739 24,12.795232 24,12 24,11.204768 23.683449,10.441261 23.121094,9.8789062 22.558739,9.3165514 21.795232,9 21,9 H 20.833984 C 20.707124,8.9994954 20.584287,8.9626243 20.478516,8.8925781 20.381455,8.8283037 20.308647,8.7334903 20.257812,8.6289062 A 1.0001,1.0001 0 0 0 20.234375,8.515625 c -0.05248,-0.1189249 -0.06811,-0.2490058 -0.04492,-0.3769531 0.02315,-0.1277414 0.08485,-0.2468652 0.175781,-0.3398438 l 0.05078,-0.050781 C 20.69505,7.4693876 20.917427,7.1377151 21.068359,6.7734375 21.219443,6.4091553 21.296875,6.0192204 21.296875,5.625 c 0,-0.3942204 -0.07743,-0.7841553 -0.228516,-1.1484375 C 20.917776,4.1131265 20.696092,3.7821627 20.417969,3.5039062 20.139322,3.2248842 19.807528,3.0025247 19.443359,2.8515625 19.079122,2.7005719 18.689127,2.6230469 18.294922,2.6230469 c -0.394206,0 -0.7842,0.077525 -1.148438,0.2285156 -0.364169,0.1509622 -0.695962,0.3733218 -0.974609,0.6523437 l -0.05078,0.050781 c -0.09299,0.090955 -0.211985,0.1526019 -0.339844,0.1757813 -0.127903,0.023191 -0.258117,0.00753 -0.376953,-0.044922 a 1.0001,1.0001 0 0 0 -0.0098,-0.00391 C 15.277989,3.6316883 15.177549,3.5472833 15.107422,3.4414062 15.038137,3.3368004 15.001245,3.2154858 15,3.0898438 V 3 C 15,2.2047534 14.683488,1.4412554 14.121094,0.87890625 13.558747,0.31658979 12.795244,0 12,0 Z m 0,2 c 0.265556,0 0.519178,0.1051251 0.707031,0.2929688 C 12.894837,2.4807595 13,2.7343866 13,3 v 0.089844 a 1.0001,1.0001 0 0 0 0,0.00391 c 0.0021,0.5165912 0.155996,1.0222148 0.441406,1.453125 0.284239,0.4291406 0.687359,0.7649519 1.160156,0.96875 0.482947,0.2118679 1.018164,0.2757356 1.53711,0.1816406 0.520941,-0.094441 1.00245,-0.342766 1.380859,-0.7128906 a 1.0001,1.0001 0 0 0 0.0078,-0.00781 l 0.06055,-0.058594 a 1.0001,1.0001 0 0 0 0,-0.00195 c 0.09275,-0.092878 0.202787,-0.1664589 0.324218,-0.2167968 0.121363,-0.050309 0.251418,-0.076172 0.382813,-0.076172 0.131394,0 0.26145,0.025862 0.382812,0.076172 0.121431,0.050338 0.231466,0.1239188 0.324219,0.2167968 a 1.0001,1.0001 0 0 0 0.002,0.00195 c 0.09297,0.092841 0.166529,0.2028963 0.216797,0.3242187 0.05032,0.1213178 0.07617,0.2513729 0.07617,0.3828125 0,0.1314396 -0.02586,0.2614947 -0.07617,0.3828125 -0.05027,0.1213224 -0.123831,0.2313778 -0.216797,0.3242187 a 1.0001,1.0001 0 0 0 -0.002,0 l -0.05859,0.060547 a 1.0001,1.0001 0 0 0 -0.0078,0.00781 c -0.370071,0.3783775 -0.618446,0.8598208 -0.712891,1.3808594 -0.08663,0.477924 -0.0345,0.9678731 0.138672,1.4199219 a 1.0001,1.0001 0 0 0 0.03906,0.1933593 c 0.203518,0.4747217 0.541729,0.8786998 0.972656,1.1640628 0.430829,0.285314 0.936386,0.439351 1.453125,0.441406 a 1.0001,1.0001 0 0 0 0.0039,0 H 21 c 0.265568,0 0.519186,0.105124 0.707031,0.292969 C 21.894876,11.480814 22,11.734432 22,12 22,12.265568 21.894876,12.519186 21.707031,12.707031 21.519186,12.894876 21.265568,13 21,13 h -0.08984 a 1.0001,1.0001 0 0 0 -0.0039,0 c -0.516595,0.0021 -1.022207,0.156001 -1.453125,0.441406 -0.429234,0.284289 -0.764985,0.687582 -0.96875,1.160156 -0.211826,0.482921 -0.275698,1.018197 -0.181641,1.53711 0.09445,0.52106 0.342897,1.002518 0.712891,1.380859 a 1.0001,1.0001 0 0 0 0.0078,0.0078 l 0.05859,0.06055 a 1.0001,1.0001 0 0 0 0.002,0 c 0.09284,0.09269 0.166518,0.202869 0.216797,0.324218 0.0503,0.121273 0.07617,0.251418 0.07617,0.382813 0,0.131394 -0.02587,0.261539 -0.07617,0.382812 -0.05028,0.12135 -0.123957,0.231529 -0.216797,0.324219 a 1.0001,1.0001 0 0 0 -0.002,0.002 c -0.09269,0.09284 -0.202869,0.166518 -0.324219,0.216797 -0.121272,0.0503 -0.251417,0.07617 -0.382812,0.07617 -0.131395,0 -0.261539,-0.02587 -0.382812,-0.07617 -0.121349,-0.05028 -0.231529,-0.123957 -0.324219,-0.216797 a 1.0001,1.0001 0 0 0 0,-0.002 l -0.06055,-0.05859 a 1.0001,1.0001 0 0 0 -0.0078,-0.0078 c -0.378341,-0.369994 -0.859798,-0.618445 -1.380859,-0.712891 -0.518912,-0.09406 -1.054188,-0.03018 -1.537109,0.181641 -0.472574,0.203765 -0.875867,0.539516 -1.160157,0.96875 -0.285405,0.430918 -0.439319,0.93653 -0.441406,1.453125 a 1.0001,1.0001 0 0 0 0,0.0039 V 21 c 0,0.265568 -0.105123,0.519186 -0.292969,0.707031 C 12.59926,21.894876 12.345647,22 12.080078,22 11.81451,22 11.560892,21.894876 11.373047,21.707031 11.185202,21.519186 11.080078,21.265568 11.080078,21 v -0.08984 a 1.0001,1.0001 0 0 0 0,-0.002 1.0001,1.0001 0 0 0 0,-0.002 1.0001,1.0001 0 0 0 0,-0.002 1.0001,1.0001 0 0 0 0,-0.002 1.0001,1.0001 0 0 0 0,-0.002 1.0001,1.0001 0 0 0 0,-0.002 1.0001,1.0001 0 0 0 0,-0.002 1.0001,1.0001 0 0 0 0,-0.002 1.0001,1.0001 0 0 0 0,-0.002 1.0001,1.0001 0 0 0 0,-0.002 1.0001,1.0001 0 0 0 0,-0.002 1.0001,1.0001 0 0 0 0,-0.002 C 11.06771,20.35505 10.895171,19.83861 10.585938,19.40625 10.282998,18.982693 9.8570532,18.66607 9.3710938,18.480469 8.8949926,18.277666 8.3709727,18.210357 7.8613281,18.302734 7.3402895,18.39718 6.8588502,18.64556 6.4804688,19.015625 a 1.0001,1.0001 0 0 0 -0.00781,0.0078 l -0.060547,0.05859 a 1.0001,1.0001 0 0 0 0,0.002 c -0.092841,0.09297 -0.2028964,0.166529 -0.3242188,0.216797 -0.1213177,0.05032 -0.2513729,0.07617 -0.3828125,0.07617 -0.1314396,0 -0.2614947,-0.02586 -0.3828125,-0.07617 -0.1213247,-0.0503 -0.2313778,-0.123831 -0.3242187,-0.216797 a 1.0001,1.0001 0 0 0 -0.00195,-0.002 C 4.9032125,18.989325 4.8296347,18.879243 4.7792969,18.757812 4.7289875,18.63645 4.703125,18.506395 4.703125,18.375 c 0,-0.131395 0.025862,-0.26145 0.076172,-0.382812 0.050338,-0.121431 0.1239189,-0.231466 0.2167969,-0.324219 a 1.0001,1.0001 0 0 0 0.00195,0 l 0.058594,-0.06055 a 1.0001,1.0001 0 0 0 0.00781,-0.0078 C 5.434583,17.221191 5.6829031,16.739691 5.7773438,16.21875 5.8714388,15.699804 5.807571,15.164587 5.5957031,14.681641 5.3919051,14.208844 5.0560938,13.805723 4.6269531,13.521484 4.1960429,13.236074 3.6904193,13.082165 3.1738281,13.080078 a 1.0001,1.0001 0 0 0 -0.00391,0 H 3 c -0.2656134,0 -0.5192404,-0.105163 -0.7070312,-0.292969 C 2.1051251,12.599256 2,12.345634 2,12.080078 2,11.814522 2.1051251,11.5609 2.2929688,11.373047 2.4807595,11.185241 2.7343866,11.080078 3,11.080078 h 0.089844 a 1.0001,1.0001 0 0 0 0.023437,0 C 3.6449448,11.06771 4.1613807,10.895178 4.59375,10.585938 5.017262,10.283019 5.3339255,9.8571419 5.5195312,9.3710938 5.7223747,8.8949678 5.7896801,8.371006 5.6972656,7.8613281 5.602826,7.3404087 5.3545706,6.858918 4.984375,6.4804688 a 1.0001,1.0001 0 0 0 -0.00781,-0.00781 l -0.058594,-0.060547 a 1.0001,1.0001 0 0 0 -0.00195,0 C 4.8230062,6.3192031 4.7495454,6.2092946 4.6992188,6.0878906 4.6488908,5.9664834 4.6230469,5.8365177 4.6230469,5.7050781 c 0,-0.1314396 0.025844,-0.2614053 0.076172,-0.3828125 0.050327,-0.1214039 0.1237928,-0.2313148 0.2167968,-0.3242187 a 1.0001,1.0001 0 0 0 0.00195,-0.00195 C 5.0108757,4.9030867 5.1207835,4.8296235 5.2421875,4.7792969 5.3635947,4.7289689 5.4935604,4.703125 5.625,4.703125 c 0.1314396,0 0.2614053,0.025844 0.3828125,0.076172 0.121404,0.050327 0.2313149,0.123793 0.3242187,0.2167969 a 1.0001,1.0001 0 0 0 0,0.00195 l 0.060547,0.058594 a 1.0001,1.0001 0 0 0 0.00781,0.00781 C 6.7788423,5.434654 7.2603305,5.6829041 7.78125,5.7773438 8.2604867,5.8642387 8.7520225,5.8130296 9.2050781,5.6386719 A 1.0001,1.0001 0 0 0 9.3945312,5.5996094 C 9.8694789,5.396058 10.273282,5.057787 10.558594,4.6269531 10.843913,4.196132 10.997945,3.6905635 11,3.1738281 a 1.0001,1.0001 0 0 0 0,-0.00195 1.0001,1.0001 0 0 0 0,-0.00195 V 3 C 11,2.7343866 11.105163,2.4807596 11.292969,2.2929688 11.480822,2.1051251 11.734444,2 12,2 Z m 0,6 c -2.1973068,0 -4,1.8026932 -4,4 0,2.197307 1.8026932,4 4,4 2.197307,0 4,-1.802693 4,-4 0,-2.1973068 -1.802693,-4 -4,-4 z m 0,2 c 1.116493,0 2,0.883507 2,2 0,1.116493 -0.883507,2 -2,2 -1.116493,0 -2,-0.883507 -2,-2 0,-1.116493 0.883507,-2 2,-2 z" />
  <defs
     id="defs2" />
</svg>
