<?xml version="1.0" encoding="UTF-8" standalone="no"?>
<svg
   width="19"
   height="19"
   viewBox="0 0 19 19"
   fill="none"
   version="1.1"
   id="svg6"
   xmlns="http://www.w3.org/2000/svg"
   xmlns:svg="http://www.w3.org/2000/svg">
  <defs
     id="defs6" />
  <path
     id="path1"
     style="fill:#a191f7;stroke-linecap:round;stroke-linejoin:round"
     d="M 0.25,0 A 0.25,0.25 0 0 0 0,0.25 v 3.25 3 3 3 3 2.25 c 0,0.331414 0.13085657,0.650425 0.36523438,0.884766 C 0.59957278,18.869054 0.91854568,19 1.25,19 h 17.5 A 0.25,0.25 0 0 0 19,18.75 0.25,0.25 0 0 0 18.75,18.5 H 1.25 C 1.0510143,18.5 0.85949159,18.421962 0.71875,18.28125 0.5780678,18.14059 0.5,17.948986 0.5,17.75 v -2 H 1.75 A 0.25,0.25 0 0 0 2,15.5 0.25,0.25 0 0 0 1.75,15.25 H 0.5 v -2.5 H 1.75 A 0.25,0.25 0 0 0 2,12.5 0.25,0.25 0 0 0 1.75,12.25 H 0.5 V 9.75 H 1.75 A 0.25,0.25 0 0 0 2,9.5 0.25,0.25 0 0 0 1.75,9.25 H 0.5 V 6.75 H 1.75 A 0.25,0.25 0 0 0 2,6.5 0.25,0.25 0 0 0 1.75,6.25 H 0.5 V 3.75 H 1.75 A 0.25,0.25 0 0 0 2,3.5 0.25,0.25 0 0 0 1.75,3.25 H 0.5 v -3 A 0.25,0.25 0 0 0 0.25,0 Z M 17,1.5 c -1.10161,0 -2,0.8983905 -2,2 0,0.7310018 0.396318,1.371795 0.984375,1.7207031 l -1.253906,2.9082031 c -0.186647,-0.057879 -0.384591,-0.089844 -0.589844,-0.089844 -0.626652,0 -1.18752,0.2906819 -1.554687,0.7441406 L 10.244141,7.3320312 C 10.360895,7.0783988 10.425781,6.7966964 10.425781,6.5 c 0,-1.1016095 -0.8983903,-2 -1.9999998,-2 -1.1015664,0 -1.9999999,0.8983905 -2,2 0,0.7229312 0.389459,1.3595162 0.9667969,1.7109375 L 5.6757812,12.085938 C 5.4930696,12.030696 5.2999426,12 5.0996094,12 c -1.1016095,0 -2,0.89839 -2,2 0,1.10161 0.8983905,2 2,2 1.1016009,0 2,-0.898389 2,-2 0,-0.722932 -0.3894594,-1.359516 -0.9667969,-1.710938 L 7.8496094,8.4140625 C 8.0323187,8.4693043 8.2254543,8.5 8.4257812,8.5 9.051878,8.5 9.6132834,8.2105819 9.9804688,7.7578125 l 2.3417972,1.4492187 c -0.116755,0.2536326 -0.181641,0.5353348 -0.181641,0.8320308 0,1.101609 0.89839,2 2,2 1.10161,0 2,-0.89839 2,-2 0,-0.7188677 -0.383121,-1.35051 -0.955078,-1.7031245 L 16.441406,5.4199219 C 16.61895,5.4718143 16.806068,5.5 17,5.5 c 1.10161,0 2,-0.8983905 2,-2 0,-1.1016095 -0.89839,-2 -2,-2 z M 17,2 c 0.83139,0 1.5,0.6686095 1.5,1.5 C 18.5,4.3313905 17.83139,5 17,5 16.798936,5 16.606509,4.9616804 16.431641,4.890625 A 0.25,0.25 0 0 0 16.404297,4.875 0.25,0.25 0 0 0 16.388672,4.8710938 C 15.863724,4.6381411 15.5,4.1135343 15.5,3.5 15.5,2.6686095 16.16861,2 17,2 Z M 8.4257812,5 c 0.8313905,0 1.5,0.6686095 1.5,1.5 0,0.2842335 -0.078762,0.549421 -0.2148437,0.7753906 a 0.25,0.25 0 0 0 -0.013672,0.013672 0.25,0.25 0 0 0 -0.00391,0.015625 C 9.4279214,7.7234388 8.9606338,8 8.4257812,8 8.2085795,8 8.0023759,7.9533531 7.8164062,7.8710938 a 0.25,0.25 0 0 0 -0.00586,-0.00195 C 7.2877593,7.6353 6.9257812,7.1119728 6.9257812,6.5 c 0,-0.8313905 0.6686665,-1.5 1.5,-1.5 z m 5.7148438,3.5390625 c 0.216295,0 0.422069,0.045353 0.607422,0.1269531 a 0.25,0.25 0 0 0 0.01758,0.013672 0.25,0.25 0 0 0 0.01953,0.00195 c 0.507271,0.2399586 0.855469,0.7567366 0.855469,1.3574214 0,0.831391 -0.66861,1.5 -1.5,1.5 -0.83139,0 -1.5,-0.66861 -1.5,-1.5 0,-0.2857902 0.07933,-0.5525217 0.216797,-0.7792964 a 0.25,0.25 0 0 0 0.0098,-0.00781 0.25,0.25 0 0 0 0.02148,-0.042969 C 13.15668,8.8042943 13.61652,8.5390625 14.140625,8.5390625 Z M 5.0996094,12.5 c 0.2153699,0 0.4207375,0.04406 0.6054687,0.125 a 0.25,0.25 0 0 0 0.00391,0.0039 c 0.5258293,0.232587 0.890625,0.756921 0.890625,1.371094 0,0.831389 -0.6686209,1.5 -1.5,1.5 -0.8313905,0 -1.5,-0.66861 -1.5,-1.5 0,-0.83139 0.6686095,-1.5 1.5,-1.5 z" />
</svg>
